<svg xmlns="http://www.w3.org/2000/svg" fill="none" viewBox="-0.5 -0.5 24 24"><path stroke="currentcolor" stroke-linecap="round" stroke-linejoin="round" d="M15.09375 9.34375h-7.1875a1.4375 1.4375 0 0 0 -1.4375 1.4375v4.3125a1.4375 1.4375 0 0 0 1.4375 1.4375h7.1875a1.4375 1.4375 0 0 0 1.4375 -1.4375v-4.3125a1.4375 1.4375 0 0 0 -1.4375 -1.4375Z" stroke-width="1"></path><path stroke="currentcolor" d="M11.5 13.296875a0.359375 0.359375 0 0 1 0 -0.71875" stroke-width="1"></path><path stroke="currentcolor" d="M11.5 13.296875a0.359375 0.359375 0 0 0 0 -0.71875" stroke-width="1"></path><path stroke="currentcolor" stroke-linecap="round" stroke-linejoin="round" d="M7.90625 9.34375V7.1875a3.59375 3.59375 0 0 1 7.1875 0v2.15625" stroke-width="1"></path><path stroke="currentcolor" stroke-linecap="round" stroke-linejoin="round" d="M11.5 22.28125C5.102166666666666 20.574458333333336 0.71875 16.780416666666667 0.71875 10.0625V0.71875h21.5625v9.34375c0 6.713125 -4.376708333333334 10.510041666666668 -10.78125 12.21875Z" stroke-width="1"></path></svg>