<svg xmlns="http://www.w3.org/2000/svg" fill="none" viewBox="-0.5 -0.5 24 24"><path stroke="currentcolor" stroke-linecap="round" stroke-linejoin="round" d="M5.03125 10.073041666666667h5.03125" stroke-width="1"></path><path stroke="currentcolor" stroke-linecap="round" stroke-linejoin="round" d="M5.03125 13.666791666666667h2.875" stroke-width="1"></path><path stroke="currentcolor" stroke-linecap="round" stroke-linejoin="round" d="M5.03125 17.260541666666665h2.875" stroke-width="1"></path><path stroke="currentcolor" stroke-linecap="round" stroke-linejoin="round" d="M9.34375 22.28125h-7.1875a1.4375 1.4375 0 0 1 -1.4375 -1.4375V5.75a1.4375 1.4375 0 0 1 1.4375 -1.4375H5.75a3.59375 3.59375 0 0 1 7.1875 0h3.59375a1.4375 1.4375 0 0 1 1.4375 1.4375v2.15625" stroke-width="1"></path><path stroke="currentcolor" d="M9.34375 4.323041666666667a0.359375 0.359375 0 0 1 0 -0.71875" stroke-width="1"></path><path stroke="currentcolor" d="M9.34375 4.323041666666667a0.359375 0.359375 0 0 0 0 -0.71875" stroke-width="1"></path><g><path stroke="currentcolor" stroke-linecap="round" stroke-linejoin="round" d="M16.53125 22.28125a5.75 5.75 0 1 0 0 -11.5 5.75 5.75 0 0 0 0 11.5Z" stroke-width="1"></path><path stroke="currentcolor" stroke-linecap="round" stroke-linejoin="round" d="m19.093833333333333 14.858958333333335 -2.783958333333333 3.712583333333334a0.71875 0.71875 0 0 1 -1.0838750000000001 0.07666666666666667l-1.4375 -1.4375" stroke-width="1"></path></g></svg>